<svg width="297" height="96" viewBox="0 0 297 96" fill="none" xmlns="http://www.w3.org/2000/svg">
<path d="M32.211 31.1101C33.6166 36.8886 40.6054 50.9573 43.9241 57.2693C45.8112 61.1737 50.7958 70.9346 55.6372 78.7434C61.689 88.5043 68.5216 96.8987 72.2308 95.9226C75.9399 94.9465 76.3304 85.576 77.5017 80.6955C78.673 75.8151 80.8204 74.839 84.3343 76.0103C87.8483 77.1816 91.5574 86.7473 95.0713 89.0899C98.5853 91.4325 100.733 90.2612 103.466 82.6477C106.199 75.0342 107.761 51.9985 106.784 32.4766C105.808 12.9548 103.856 11.1978 103.27 10.2217C102.685 9.24565 99.7566 8.66 97.8044 20.7635C95.8522 32.8671 90.5813 45.361 89.2148 47.7037C87.8483 50.0463 81.6013 64.102 67.936 57.2693C54.2707 50.4367 38.6532 28.1818 35.1393 25.2535C31.6254 22.3253 30.4541 23.887 32.211 31.1101Z" fill="#1E3864"/>
<path d="M21.2078 36.9667C20.4269 28.8456 22.7695 23.6918 24.7217 19.9827C25.5437 18.4209 26.6348 17.0544 28.8213 13.9309C31.5543 10.0265 33.3113 5.14608 27.2595 2.41302C21.2078 -0.320033 13.0086 -0.124815 6.95684 2.41302C0.905071 4.95086 -2.80408 12.9548 2.66203 23.4966C8.12815 34.0384 19.4508 49.6558 24.136 53.1698C28.8213 56.6837 28.6261 55.9028 28.8213 55.7076C29.0165 55.5124 22.1839 47.118 21.2078 36.9667Z" fill="url(#paint0_linear_1_11)"/>
<path d="M136.977 52.9637L127.827 20.9888H135.212L140.505 43.2058H140.77L146.61 20.9888H152.933L158.756 43.2526H159.037L164.33 20.9888H171.715L162.566 52.9637H155.977L149.888 32.0583H149.638L143.565 52.9637H136.977ZM177.624 52.9637H170.38L181.418 20.9888H190.13L201.153 52.9637H193.908L185.899 28.2956H185.649L177.624 52.9637ZM177.172 40.3955H194.283V45.6726H177.172V40.3955ZM211.762 20.9888V52.9637H205.001V20.9888H211.762ZM216.98 52.9637V48.9513L232.936 26.5626H216.949V20.9888H241.43V25.0013L225.458 47.39H241.461V52.9637H216.98ZM246.648 52.9637V20.9888H253.409V47.39H267.117V52.9637H246.648ZM265.641 20.9888H273.213L280.505 34.7593H280.817L288.108 20.9888H295.68L284.017 41.6601V52.9637H277.304V41.6601L265.641 20.9888Z" fill="#F8A41C"/>
<path d="M131.527 67.6786V64.0961H148.406V67.6786H142.114V84.6477H137.819V67.6786H131.527ZM155.894 84.9487C154.309 84.9487 152.944 84.6276 151.8 83.9854C150.663 83.3364 149.786 82.4199 149.171 81.2358C148.555 80.045 148.248 78.6367 148.248 77.0111C148.248 75.4256 148.555 74.034 149.171 72.8365C149.786 71.639 150.653 70.7058 151.77 70.0368C152.894 69.3678 154.212 69.0333 155.724 69.0333C156.74 69.0333 157.687 69.1972 158.563 69.525C159.447 69.8461 160.216 70.3311 160.872 70.9801C161.534 71.629 162.049 72.4452 162.417 73.4286C162.785 74.4053 162.969 75.5493 162.969 76.8605V78.0346H149.953V75.3854H158.945C158.945 74.7699 158.811 74.2247 158.543 73.7497C158.276 73.2747 157.905 72.9034 157.43 72.6358C156.961 72.3615 156.416 72.2244 155.794 72.2244C155.145 72.2244 154.57 72.3749 154.068 72.676C153.573 72.9703 153.185 73.3684 152.904 73.8701C152.623 74.3652 152.479 74.9171 152.472 75.5259V78.0447C152.472 78.8073 152.613 79.4663 152.894 80.0216C153.181 80.5768 153.586 81.005 154.108 81.306C154.63 81.6071 155.249 81.7576 155.964 81.7576C156.439 81.7576 156.874 81.6907 157.269 81.5569C157.664 81.4231 158.002 81.2224 158.283 80.9548C158.563 80.6872 158.778 80.3594 158.925 79.9714L162.879 80.2323C162.678 81.1823 162.266 82.0118 161.644 82.721C161.029 83.4234 160.233 83.972 159.256 84.3667C158.286 84.7547 157.165 84.9487 155.894 84.9487ZM172.723 84.9487C171.144 84.9487 169.786 84.6142 168.649 83.9452C167.518 83.2695 166.648 82.3329 166.04 81.1354C165.437 79.9379 165.136 78.5598 165.136 77.001C165.136 75.4222 165.441 74.0374 166.05 72.8466C166.665 71.6491 167.538 70.7158 168.669 70.0468C169.799 69.3711 171.144 69.0333 172.703 69.0333C174.047 69.0333 175.225 69.2775 176.235 69.7658C177.245 70.2542 178.045 70.9399 178.633 71.823C179.222 72.7061 179.547 73.743 179.607 74.9338H175.573C175.459 74.1645 175.158 73.5457 174.67 73.0774C174.188 72.6024 173.556 72.3649 172.773 72.3649C172.111 72.3649 171.532 72.5455 171.037 72.9068C170.549 73.2613 170.167 73.7798 169.893 74.4622C169.619 75.1446 169.482 75.9708 169.482 76.9408C169.482 77.9243 169.615 78.7605 169.883 79.4496C170.157 80.1386 170.542 80.6638 171.037 81.0251C171.532 81.3863 172.111 81.5669 172.773 81.5669C173.261 81.5669 173.7 81.4666 174.088 81.2659C174.482 81.0652 174.807 80.7742 175.061 80.3929C175.322 80.0048 175.492 79.5399 175.573 78.998H179.607C179.54 80.1754 179.219 81.2124 178.643 82.1088C178.075 82.9986 177.289 83.6944 176.285 84.1961C175.282 84.6978 174.094 84.9487 172.723 84.9487ZM186.619 75.7366V84.6477H182.344V64.0961H186.498V71.9535H186.679C187.027 71.0436 187.589 70.3311 188.365 69.816C189.141 69.2942 190.114 69.0333 191.285 69.0333C192.355 69.0333 193.289 69.2674 194.085 69.7357C194.888 70.1973 195.51 70.863 195.951 71.7327C196.399 72.5957 196.62 73.6293 196.614 74.8335V84.6477H192.339V75.5961C192.345 74.6462 192.104 73.9069 191.616 73.3784C191.134 72.8499 190.459 72.5857 189.589 72.5857C189.007 72.5857 188.492 72.7094 188.044 72.957C187.602 73.2045 187.254 73.5657 187 74.0407C186.753 74.509 186.625 75.0743 186.619 75.7366ZM204.253 75.7366V84.6477H199.978V69.234H204.052V71.9535H204.233C204.574 71.057 205.146 70.3479 205.949 69.826C206.751 69.2975 207.725 69.0333 208.869 69.0333C209.939 69.0333 210.872 69.2674 211.668 69.7357C212.465 70.204 213.083 70.873 213.525 71.7427C213.966 72.6057 214.187 73.636 214.187 74.8335V84.6477H209.912V75.5961C209.919 74.6529 209.678 73.917 209.19 73.3885C208.701 72.8533 208.029 72.5857 207.173 72.5857C206.597 72.5857 206.089 72.7094 205.647 72.957C205.213 73.2045 204.871 73.5657 204.624 74.0407C204.383 74.509 204.259 75.0743 204.253 75.7366ZM224.521 84.9487C222.962 84.9487 221.614 84.6176 220.477 83.9553C219.346 83.2863 218.473 82.3564 217.858 81.1655C217.242 79.968 216.934 78.5799 216.934 77.001C216.934 75.4088 217.242 74.0173 217.858 72.8265C218.473 71.629 219.346 70.6991 220.477 70.0368C221.614 69.3678 222.962 69.0333 224.521 69.0333C226.079 69.0333 227.424 69.3678 228.555 70.0368C229.692 70.6991 230.568 71.629 231.184 72.8265C231.799 74.0173 232.107 75.4088 232.107 77.001C232.107 78.5799 231.799 79.968 231.184 81.1655C230.568 82.3564 229.692 83.2863 228.555 83.9553C227.424 84.6176 226.079 84.9487 224.521 84.9487ZM224.541 81.6372C225.25 81.6372 225.842 81.4365 226.317 81.0351C226.792 80.627 227.15 80.0717 227.391 79.3693C227.638 78.6668 227.762 77.8674 227.762 76.9709C227.762 76.0745 227.638 75.275 227.391 74.5726C227.15 73.8701 226.792 73.3149 226.317 72.9068C225.842 72.4987 225.25 72.2946 224.541 72.2946C223.825 72.2946 223.223 72.4987 222.735 72.9068C222.253 73.3149 221.888 73.8701 221.641 74.5726C221.4 75.275 221.279 76.0745 221.279 76.9709C221.279 77.8674 221.4 78.6668 221.641 79.3693C221.888 80.0717 222.253 80.627 222.735 81.0351C223.223 81.4365 223.825 81.6372 224.541 81.6372ZM239.162 64.0961V84.6477H234.887V64.0961H239.162ZM249.55 84.9487C247.992 84.9487 246.644 84.6176 245.506 83.9553C244.376 83.2863 243.503 82.3564 242.887 81.1655C242.272 79.968 241.964 78.5799 241.964 77.001C241.964 75.4088 242.272 74.0173 242.887 72.8265C243.503 71.629 244.376 70.6991 245.506 70.0368C246.644 69.3678 247.992 69.0333 249.55 69.0333C251.109 69.0333 252.454 69.3678 253.584 70.0368C254.722 70.6991 255.598 71.629 256.214 72.8265C256.829 74.0173 257.137 75.4088 257.137 77.001C257.137 78.5799 256.829 79.968 256.214 81.1655C255.598 82.3564 254.722 83.2863 253.584 83.9553C252.454 84.6176 251.109 84.9487 249.55 84.9487ZM249.57 81.6372C250.28 81.6372 250.872 81.4365 251.347 81.0351C251.822 80.627 252.18 80.0717 252.42 79.3693C252.668 78.6668 252.792 77.8674 252.792 76.9709C252.792 76.0745 252.668 75.275 252.42 74.5726C252.18 73.8701 251.822 73.3149 251.347 72.9068C250.872 72.4987 250.28 72.2946 249.57 72.2946C248.855 72.2946 248.253 72.4987 247.764 72.9068C247.283 73.3149 246.918 73.8701 246.67 74.5726C246.43 75.275 246.309 76.0745 246.309 76.9709C246.309 77.8674 246.43 78.6668 246.67 79.3693C246.918 80.0717 247.283 80.627 247.764 81.0351C248.253 81.4365 248.855 81.6372 249.57 81.6372ZM266.861 90.7489C265.476 90.7489 264.288 90.5583 263.298 90.1769C262.315 89.8023 261.532 89.2905 260.95 88.6416C260.368 87.9927 259.99 87.2635 259.816 86.454L263.77 85.9221C263.89 86.2299 264.081 86.5175 264.342 86.7851C264.603 87.0527 264.947 87.2668 265.376 87.4274C265.81 87.5946 266.339 87.6782 266.961 87.6782C267.891 87.6782 268.657 87.4508 269.259 86.9959C269.868 86.5476 270.172 85.795 270.172 84.738V81.9182H269.992C269.804 82.3463 269.523 82.7511 269.149 83.1324C268.774 83.5137 268.292 83.8248 267.704 84.0656C267.115 84.3065 266.412 84.4269 265.596 84.4269C264.439 84.4269 263.385 84.1593 262.435 83.6241C261.492 83.0822 260.739 82.256 260.177 81.1455C259.622 80.0283 259.345 78.6167 259.345 76.9107C259.345 75.1646 259.629 73.7062 260.198 72.5355C260.766 71.3647 261.522 70.4884 262.465 69.9063C263.415 69.3243 264.456 69.0333 265.586 69.0333C266.449 69.0333 267.172 69.1805 267.754 69.4748C268.336 69.7625 268.804 70.1237 269.159 70.5586C269.52 70.9868 269.798 71.4082 269.992 71.823H270.152V69.234H274.397V84.7982C274.397 86.1094 274.076 87.2066 273.434 88.0897C272.791 88.9727 271.902 89.635 270.764 90.0766C269.634 90.5248 268.333 90.7489 266.861 90.7489ZM266.951 81.2157C267.64 81.2157 268.222 81.0451 268.697 80.7039C269.179 80.3561 269.547 79.861 269.801 79.2188C270.062 78.5698 270.192 77.7938 270.192 76.8907C270.192 75.9875 270.065 75.2048 269.811 74.5425C269.557 73.8735 269.189 73.355 268.707 72.9871C268.225 72.6191 267.64 72.4351 266.951 72.4351C266.249 72.4351 265.657 72.6258 265.175 73.0071C264.693 73.3818 264.329 73.9036 264.081 74.5726C263.834 75.2416 263.71 76.0143 263.71 76.8907C263.71 77.7804 263.834 78.5498 264.081 79.1987C264.335 79.8409 264.7 80.3393 265.175 80.6939C265.657 81.0418 266.249 81.2157 266.951 81.2157ZM280.438 90.4278C279.896 90.4278 279.388 90.3843 278.913 90.2974C278.444 90.2171 278.056 90.1134 277.749 89.9863L278.712 86.7952C279.214 86.949 279.665 87.0326 280.067 87.046C280.475 87.0594 280.826 86.9657 281.12 86.765C281.421 86.5644 281.666 86.2232 281.853 85.7415L282.104 85.0892L276.575 69.234H281.07L284.261 80.5534H284.422L287.643 69.234H292.169L286.178 86.3135C285.89 87.143 285.499 87.8656 285.004 88.481C284.516 89.1032 283.897 89.5815 283.147 89.916C282.398 90.2572 281.495 90.4278 280.438 90.4278Z" fill="#1E3864"/>
<defs>
<linearGradient id="paint0_linear_1_11" x1="23.0358" y1="16.8592" x2="0.585656" y2="16.8592" gradientUnits="userSpaceOnUse">
<stop stop-color="#FDBE0F"/>
<stop offset="1" stop-color="#F9A71C"/>
</linearGradient>
</defs>
</svg>
